<svg xmlns="http://www.w3.org/2000/svg" viewBox="0 0 512 512" width="512" height="512">
  <defs>
    <linearGradient id="bg" x1="0" y1="0" x2="1" y2="1">
      <stop offset="0" stop-color="#0c1326"/>
      <stop offset="1" stop-color="#10243a"/>
    </linearGradient>
    <linearGradient id="bat" x1="0" y1="0" x2="0" y2="1">
      <stop offset="0" stop-color="#5eead4"/>
      <stop offset="1" stop-color="#22b8a6"/>
    </linearGradient>
  </defs>
  <rect width="512" height="512" rx="112" fill="url(#bg)"/>
  <g transform="translate(256 230)">
    <path fill="url(#bat)" d="M0 -44C-24 -100 -76 -128 -136 -116c28 16 38 44 34 74C-138 12 -188 24 -212 56c44 4 70 28 88 56 26 38 64 60 124 60s98 -22 124 -60c18 -28 44 -52 88 -56C288 80 238 12 234 -42c-4 -30 6 -58 34 -74C208 -128 156 -100 132 -44 108 -8 64 14 0 14S-108 -8 0 -44Z"/>
  </g>
  <g stroke="#5eead4" stroke-width="9" fill="none" opacity="0.85" stroke-linecap="round">
    <path d="M86 398 q34 -54 68 0 q34 54 68 0 q34 -54 68 0 q34 54 68 0 q34 -54 68 0"/>
  </g>
</svg>
